<?xml version="1.0" standalone="no"?>
<!DOCTYPE svg PUBLIC "-//W3C//DTD SVG 20010904//EN"
 "http://www.w3.org/TR/2001/REC-SVG-20010904/DTD/svg10.dtd">
<svg version="1.0" xmlns="http://www.w3.org/2000/svg"
 width="300.000000pt" height="300.000000pt" viewBox="0 0 300.000000 300.000000"
 preserveAspectRatio="xMidYMid meet">
<metadata>
Created by potrace 1.11, written by Peter Selinger 2001-2013
</metadata>
<g transform="translate(0.000000,300.000000) scale(0.100000,-0.100000)"
fill="#000000" stroke="none">
<path d="M678 2766 c-3 -14 -1 -30 3 -37 11 -19 1638 -20 1640 -1 2 15 2 39 0
52 -1 7 -281 10 -820 10 l-819 0 -4 -24z"/>
<path d="M768 2641 c-2 -9 -2 -26 0 -37 l4 -22 731 2 731 1 -1 28 c-1 15 -1
31 -2 36 -1 5 -307 9 -730 9 -668 0 -730 -2 -733 -17z"/>
<path d="M1455 2542 c-2 -3 -181 -6 -397 -8 -579 -5 -571 -5 -666 -24 -212
-43 -336 -162 -378 -362 -23 -108 -14 -282 20 -381 93 -276 282 -457 536 -514
74 -16 278 1 302 25 15 15 22 13 -89 17 -226 8 -382 98 -466 267 -160 321 -4
752 309 856 45 15 80 19 149 17 83 -3 188 -26 208 -45 5 -4 9 -445 8 -980 0
-1065 1 -1040 -59 -1105 -30 -33 -95 -63 -152 -71 -23 -3 -49 -7 -58 -8 -9 -2
-18 -8 -20 -14 -3 -9 193 -12 797 -12 697 1 801 3 801 15 0 11 -11 15 -37 15
-67 0 -149 30 -188 68 -69 69 -67 30 -67 1114 0 534 4 974 9 979 21 21 160 47
238 45 128 -5 235 -55 323 -150 66 -72 131 -191 146 -267 2 -13 8 -42 14 -65
13 -60 7 -210 -12 -283 -28 -103 -73 -181 -146 -249 -39 -36 -159 -100 -205
-108 -16 -3 -46 -9 -65 -13 -19 -4 -68 -7 -108 -6 -113 2 -108 -20 9 -40 285
-49 555 100 703 386 64 126 81 200 80 349 -1 165 -16 237 -69 319 -100 158
-252 218 -560 220 -283 3 -820 12 -862 15 -24 1 -45 1 -48 -2z m105 -57 c70
-36 127 -96 143 -153 18 -66 16 -1919 -2 -1975 -19 -57 -61 -92 -136 -112 -62
-17 -68 -17 -130 0 -75 20 -117 54 -136 112 -10 30 -13 257 -13 1003 0 1075
-5 990 69 1065 35 34 118 84 143 85 7 0 35 -11 62 -25z m-399 -109 c2 -296 0
-1979 -3 -1981 -2 -2 -12 -5 -23 -7 -20 -3 -20 3 -23 1028 l-2 1032 25 0 c24
0 25 -3 26 -72z m729 -957 l0 -1027 -25 -4 c-23 -5 -25 -2 -25 36 -4 330 0
2008 4 2015 4 5 15 9 26 8 20 -1 20 -12 20 -1028z"/>
<path d="M1484 2300 c-12 -5 -25 -14 -29 -20 -4 -6 -7 -416 -7 -912 0 -857 1
-902 18 -915 42 -31 84 -3 85 55 4 244 0 1762 -5 1771 -12 19 -40 29 -62 21z"/>
</g>
</svg>
